<svg xmlns="http://www.w3.org/2000/svg" viewBox="0 0 255 243" role="img" aria-label="Chedoku knight logo">
<path d="M 242.5,237.9 L 11.2,236.8 L 11.0,210.3 L 28.0,182.3 L 33.7,179.8 L 34.9,176.5 L 8.9,138.3 L 10.9,116.3 L 10.1,14.2 L 242.7,13.1 L 242.5,237.9 Z M 24.6,65.8 L 43.3,41.0 L 71.5,35.9 L 82.8,28.7 L 82.8,24.3 L 22.3,24.0 L 20.9,62.3 L 24.6,65.8 Z M 162.6,83.8 L 165.9,80.3 L 164.7,24.1 L 100.1,24.2 L 99.0,47.5 L 129.2,82.8 L 162.6,83.8 Z M 230.6,83.8 L 233.9,80.3 L 232.8,24.2 L 177.2,24.1 L 177.1,82.7 L 230.6,83.8 Z M 162.6,155.8 L 165.9,152.3 L 164.5,95.0 L 146.1,95.2 L 145.9,118.5 L 128.5,131.9 L 123.3,130.9 L 104.5,118.0 L 91.0,118.3 L 91.0,123.5 L 113.3,153.9 L 162.6,155.8 Z M 230.6,155.8 L 233.9,152.3 L 232.8,95.2 L 177.2,95.1 L 177.1,154.7 L 230.6,155.8 Z M 162.6,226.8 L 165.9,223.3 L 164.8,167.3 L 117.3,167.0 L 110.9,184.5 L 109.9,195.3 L 120.9,210.3 L 122.0,225.6 L 162.6,226.8 Z M 230.6,226.8 L 233.9,223.3 L 232.8,167.2 L 177.2,167.1 L 177.1,225.7 L 230.6,226.8 Z" fill="#14293d" fill-rule="evenodd"/>
<path d="M 100.5,181.9 L 84.5,180.9 L 82.1,178.7 L 62.9,140.3 L 56.0,131.5 L 56.9,127.3 L 48.9,106.3 L 48.9,98.5 L 55.5,79.0 L 49.6,85.8 L 48.3,84.0 L 46.1,86.2 L 37.7,101.8 L 34.9,99.5 L 44.6,171.8 L 41.0,169.6 L 17.9,132.3 L 31.0,98.3 L 34.9,94.5 L 33.0,91.3 L 49.8,75.6 L 51.0,70.3 L 66.9,50.5 L 67.2,46.1 L 75.5,43.9 L 88.5,35.9 L 90.9,37.5 L 91.0,54.5 L 98.9,62.3 L 96.9,63.5 L 97.0,73.6 L 112.3,81.9 L 114.6,81.0 L 136.9,103.5 L 136.8,114.6 L 124.5,120.9 L 112.1,110.7 L 111.5,106.0 L 105.3,107.9 L 78.3,106.9 L 65.8,88.3 L 64.0,88.3 L 65.0,102.5 L 69.9,108.3 L 69.0,111.5 L 97.9,165.3 L 94.0,179.5 L 100.5,181.9 Z" fill="#37495b" fill-rule="evenodd"/>
<path d="M 21.5,125.9 L 19.9,119.5 L 24.0,83.3 L 48.2,51.1 L 67.5,47.0 L 50.8,71.7 L 33.0,91.3 L 21.5,125.9 Z M 113.5,81.9 L 97.1,73.7 L 97.2,63.1 L 113.5,81.9 Z M 56.5,130.9 L 37.9,101.3 L 55.3,79.0 L 48.9,98.5 L 48.9,106.3 L 56.5,130.9 Z M 100.5,180.9 L 94.0,179.5 L 97.9,165.3 L 77.0,127.5 L 69.3,109.0 L 107.9,163.3 L 100.5,180.9 Z M 98.5,199.9 L 32.5,199.9 L 31.0,198.3 L 35.5,192.9 L 97.3,191.9 L 99.9,195.5 L 98.5,199.9 Z M 110.5,227.9 L 22.5,226.9 L 20.9,221.5 L 22.5,219.9 L 74.3,219.9 L 81.5,213.9 L 110.3,213.9 L 111.9,215.5 L 110.5,227.9 Z" fill="#c2a861" fill-rule="evenodd"/>
</svg>