<?xml version="1.0" encoding="UTF-8" standalone="no"?>
<!DOCTYPE svg PUBLIC "-//W3C//DTD SVG 1.1//EN" "http://www.w3.org/Graphics/SVG/1.1/DTD/svg11.dtd">
<svg xmlns="http://www.w3.org/2000/svg" version="1.1" viewBox="0.00 0.00 350.00 344.00">
<g stroke-width="2.00" fill="none" stroke-linecap="butt">
<path stroke="#808080" vector-effect="non-scaling-stroke" d="
  M 349.2897 171.9039
  A 174.10 170.91 0.1 0 0 175.4883 0.6903
  A 174.10 170.91 0.1 0 0 1.0903 171.2961
  A 174.10 170.91 0.1 0 0 174.8917 342.5097
  A 174.10 170.91 0.1 0 0 349.2897 171.9039"
/>
<path stroke="#808080" vector-effect="non-scaling-stroke" d="
  M 177.1056 305.9298
  A 134.33 132.26 90.1 0 0 309.5998 171.8308
  A 134.33 132.26 90.1 0 0 177.5744 37.2702
  A 134.33 132.26 90.1 0 0 45.0802 171.3692
  A 134.33 132.26 90.1 0 0 177.1056 305.9298"
/>
<path stroke="#808080" vector-effect="non-scaling-stroke" d="
  M 193.43 207.75
  Q 195.32 207.12 196.99 206.44
  C 203.46 203.83 218.76 203.45 216.24 192.86
  Q 216.12 192.37 215.63 192.27
  C 208.68 190.83 202.00 192.57 194.51 194.52
  Q 193.44 194.80 191.39 194.36
  Q 190.83 194.24 191.18 193.79
  C 194.83 189.09 200.25 189.18 205.30 187.10
  Q 205.81 186.90 206.10 186.43
  L 208.44 182.71
  Q 208.70 182.30 208.65 181.81
  C 207.21 167.24 206.59 150.74 205.71 138.10
  Q 204.00 113.27 202.65 88.43
  C 202.53 86.21 203.56 83.71 202.10 80.95
  Q 201.90 80.57 201.47 80.59
  Q 192.12 80.97 182.74 80.67
  Q 181.06 80.62 179.94 83.12
  Q 179.75 83.55 179.75 84.01
  L 179.75 87.81
  Q 179.75 88.49 179.08 88.52
  Q 166.36 89.16 156.04 81.89
  Q 155.56 81.55 155.28 82.06
  L 117.61 151.65
  Q 117.36 152.10 117.65 152.54
  Q 121.61 158.60 126.92 163.52
  C 129.58 165.99 133.34 165.83 136.69 165.53
  Q 137.17 165.49 137.58 165.74
  L 138.30 166.18
  Q 138.89 166.53 139.14 165.89
  Q 143.85 153.88 151.00 143.10
  Q 151.33 142.60 151.93 142.63
  L 162.91 143.18
  Q 163.60 143.21 163.34 143.85
  Q 160.32 151.46 156.19 158.52
  C 154.62 161.19 153.67 164.14 152.16 166.93
  Q 148.55 173.61 144.78 180.26
  Q 144.54 180.69 144.56 181.18
  C 144.94 188.29 149.28 187.53 154.11 189.57
  C 155.47 190.14 163.04 192.03 161.01 194.38
  A 1.43 1.42 26.0 0 1 159.66 194.84
  C 155.00 193.93 135.85 187.49 135.50 195.73
  Q 135.37 198.78 138.72 200.50
  Q 149.62 206.11 159.03 207.24
  Q 159.42 207.28 159.06 207.45
  C 154.14 209.69 148.92 209.63 143.80 210.26
  C 137.75 211.01 136.38 220.16 130.44 222.54
  C 128.36 223.37 122.81 225.06 121.60 226.78
  C 118.19 231.66 128.81 238.53 132.02 239.73
  Q 141.17 243.12 151.03 243.48
  A 0.68 0.68 0.0 0 1 151.50 244.62
  C 147.88 248.41 134.73 243.28 129.76 244.52
  C 125.25 245.65 121.54 251.10 124.01 255.75
  Q 124.24 256.19 124.25 256.68
  C 124.28 260.67 123.95 262.48 127.57 264.97
  Q 127.99 265.25 128.49 265.24
  C 132.51 265.13 136.20 266.44 139.86 266.46
  Q 172.62 266.67 205.40 266.80
  C 208.44 266.81 212.11 268.09 216.12 266.59
  Q 216.58 266.42 217.07 266.49
  Q 221.58 267.11 226.17 264.16
  C 230.69 261.26 229.00 256.84 229.17 252.27
  C 229.52 242.63 221.02 240.93 214.08 244.97
  Q 213.66 245.21 213.36 245.60
  C 212.23 247.10 205.00 246.51 203.02 246.49
  Q 202.32 246.48 202.32 245.78
  L 202.32 245.21
  Q 202.32 244.59 202.93 244.49
  C 211.84 242.96 223.23 241.21 229.90 234.03
  Q 230.23 233.67 230.31 233.20
  L 231.36 227.10
  Q 231.47 226.45 230.84 226.24
  C 228.31 225.42 226.15 225.31 223.95 224.17
  Q 216.88 220.49 213.05 213.51
  C 212.40 212.32 210.90 210.90 209.77 210.71
  Q 201.60 209.30 193.45 207.95
  Q 193.02 207.88 193.43 207.75"
/>
<path stroke="#808080" vector-effect="non-scaling-stroke" d="
  M 152.99 112.38
  C 150.59 114.66 152.89 117.27 154.99 118.66
  Q 155.48 118.99 155.96 118.64
  L 162.37 113.92
  A 0.61 0.61 0.0 0 0 162.22 112.86
  Q 158.11 111.33 153.80 111.99
  Q 153.34 112.06 152.99 112.38"
/>
<path stroke="#808080" vector-effect="non-scaling-stroke" d="
  M 170.75 152.36
  C 164.77 161.39 158.52 170.62 153.44 180.20
  A 1.34 1.34 0.0 0 0 154.23 182.11
  L 162.99 184.79
  Q 163.47 184.94 163.73 184.52
  Q 164.89 182.63 165.24 180.73
  Q 167.82 166.62 171.07 152.50
  Q 171.29 151.55 170.75 152.36"
/>
<path stroke="#808080" vector-effect="non-scaling-stroke" d="
  M 158.36 231.01
  C 160.49 227.20 160.75 221.42 160.47 217.64
  Q 160.42 217.01 159.81 217.18
  Q 148.79 220.30 139.08 226.32
  A 1.79 1.78 -52.8 0 0 139.52 229.55
  Q 147.98 232.00 156.77 231.94
  Q 157.83 231.94 158.36 231.01"
/>
</g>
<path fill="#ffffff" d="
  M 0.00 0.00
  L 350.00 0.00
  L 350.00 344.00
  L 0.00 344.00
  L 0.00 0.00
  Z
  M 349.2897 171.9039
  A 174.10 170.91 0.1 0 0 175.4883 0.6903
  A 174.10 170.91 0.1 0 0 1.0903 171.2961
  A 174.10 170.91 0.1 0 0 174.8917 342.5097
  A 174.10 170.91 0.1 0 0 349.2897 171.9039
  Z"
/>
<path fill="#000000" d="
  M 349.2897 171.9039
  A 174.10 170.91 0.1 0 1 174.8917 342.5097
  A 174.10 170.91 0.1 0 1 1.0903 171.2961
  A 174.10 170.91 0.1 0 1 175.4883 0.6903
  A 174.10 170.91 0.1 0 1 349.2897 171.9039
  Z
  M 177.1056 305.9298
  A 134.33 132.26 90.1 0 0 309.5998 171.8308
  A 134.33 132.26 90.1 0 0 177.5744 37.2702
  A 134.33 132.26 90.1 0 0 45.0802 171.3692
  A 134.33 132.26 90.1 0 0 177.1056 305.9298
  Z"
/>
<path fill="#ffffff" d="
  M 177.1056 305.9298
  A 134.33 132.26 90.1 0 1 45.0802 171.3692
  A 134.33 132.26 90.1 0 1 177.5744 37.2702
  A 134.33 132.26 90.1 0 1 309.5998 171.8308
  A 134.33 132.26 90.1 0 1 177.1056 305.9298
  Z
  M 193.43 207.75
  Q 195.32 207.12 196.99 206.44
  C 203.46 203.83 218.76 203.45 216.24 192.86
  Q 216.12 192.37 215.63 192.27
  C 208.68 190.83 202.00 192.57 194.51 194.52
  Q 193.44 194.80 191.39 194.36
  Q 190.83 194.24 191.18 193.79
  C 194.83 189.09 200.25 189.18 205.30 187.10
  Q 205.81 186.90 206.10 186.43
  L 208.44 182.71
  Q 208.70 182.30 208.65 181.81
  C 207.21 167.24 206.59 150.74 205.71 138.10
  Q 204.00 113.27 202.65 88.43
  C 202.53 86.21 203.56 83.71 202.10 80.95
  Q 201.90 80.57 201.47 80.59
  Q 192.12 80.97 182.74 80.67
  Q 181.06 80.62 179.94 83.12
  Q 179.75 83.55 179.75 84.01
  L 179.75 87.81
  Q 179.75 88.49 179.08 88.52
  Q 166.36 89.16 156.04 81.89
  Q 155.56 81.55 155.28 82.06
  L 117.61 151.65
  Q 117.36 152.10 117.65 152.54
  Q 121.61 158.60 126.92 163.52
  C 129.58 165.99 133.34 165.83 136.69 165.53
  Q 137.17 165.49 137.58 165.74
  L 138.30 166.18
  Q 138.89 166.53 139.14 165.89
  Q 143.85 153.88 151.00 143.10
  Q 151.33 142.60 151.93 142.63
  L 162.91 143.18
  Q 163.60 143.21 163.34 143.85
  Q 160.32 151.46 156.19 158.52
  C 154.62 161.19 153.67 164.14 152.16 166.93
  Q 148.55 173.61 144.78 180.26
  Q 144.54 180.69 144.56 181.18
  C 144.94 188.29 149.28 187.53 154.11 189.57
  C 155.47 190.14 163.04 192.03 161.01 194.38
  A 1.43 1.42 26.0 0 1 159.66 194.84
  C 155.00 193.93 135.85 187.49 135.50 195.73
  Q 135.37 198.78 138.72 200.50
  Q 149.62 206.11 159.03 207.24
  Q 159.42 207.28 159.06 207.45
  C 154.14 209.69 148.92 209.63 143.80 210.26
  C 137.75 211.01 136.38 220.16 130.44 222.54
  C 128.36 223.37 122.81 225.06 121.60 226.78
  C 118.19 231.66 128.81 238.53 132.02 239.73
  Q 141.17 243.12 151.03 243.48
  A 0.68 0.68 0.0 0 1 151.50 244.62
  C 147.88 248.41 134.73 243.28 129.76 244.52
  C 125.25 245.65 121.54 251.10 124.01 255.75
  Q 124.24 256.19 124.25 256.68
  C 124.28 260.67 123.95 262.48 127.57 264.97
  Q 127.99 265.25 128.49 265.24
  C 132.51 265.13 136.20 266.44 139.86 266.46
  Q 172.62 266.67 205.40 266.80
  C 208.44 266.81 212.11 268.09 216.12 266.59
  Q 216.58 266.42 217.07 266.49
  Q 221.58 267.11 226.17 264.16
  C 230.69 261.26 229.00 256.84 229.17 252.27
  C 229.52 242.63 221.02 240.93 214.08 244.97
  Q 213.66 245.21 213.36 245.60
  C 212.23 247.10 205.00 246.51 203.02 246.49
  Q 202.32 246.48 202.32 245.78
  L 202.32 245.21
  Q 202.32 244.59 202.93 244.49
  C 211.84 242.96 223.23 241.21 229.90 234.03
  Q 230.23 233.67 230.31 233.20
  L 231.36 227.10
  Q 231.47 226.45 230.84 226.24
  C 228.31 225.42 226.15 225.31 223.95 224.17
  Q 216.88 220.49 213.05 213.51
  C 212.40 212.32 210.90 210.90 209.77 210.71
  Q 201.60 209.30 193.45 207.95
  Q 193.02 207.88 193.43 207.75
  Z"
/>
<path fill="#000000" d="
  M 193.45 207.95
  Q 201.60 209.30 209.77 210.71
  C 210.90 210.90 212.40 212.32 213.05 213.51
  Q 216.88 220.49 223.95 224.17
  C 226.15 225.31 228.31 225.42 230.84 226.24
  Q 231.47 226.45 231.36 227.10
  L 230.31 233.20
  Q 230.23 233.67 229.90 234.03
  C 223.23 241.21 211.84 242.96 202.93 244.49
  Q 202.32 244.59 202.32 245.21
  L 202.32 245.78
  Q 202.32 246.48 203.02 246.49
  C 205.00 246.51 212.23 247.10 213.36 245.60
  Q 213.66 245.21 214.08 244.97
  C 221.02 240.93 229.52 242.63 229.17 252.27
  C 229.00 256.84 230.69 261.26 226.17 264.16
  Q 221.58 267.11 217.07 266.49
  Q 216.58 266.42 216.12 266.59
  C 212.11 268.09 208.44 266.81 205.40 266.80
  Q 172.62 266.67 139.86 266.46
  C 136.20 266.44 132.51 265.13 128.49 265.24
  Q 127.99 265.25 127.57 264.97
  C 123.95 262.48 124.28 260.67 124.25 256.68
  Q 124.24 256.19 124.01 255.75
  C 121.54 251.10 125.25 245.65 129.76 244.52
  C 134.73 243.28 147.88 248.41 151.50 244.62
  A 0.68 0.68 0.0 0 0 151.03 243.48
  Q 141.17 243.12 132.02 239.73
  C 128.81 238.53 118.19 231.66 121.60 226.78
  C 122.81 225.06 128.36 223.37 130.44 222.54
  C 136.38 220.16 137.75 211.01 143.80 210.26
  C 148.92 209.63 154.14 209.69 159.06 207.45
  Q 159.42 207.28 159.03 207.24
  Q 149.62 206.11 138.72 200.50
  Q 135.37 198.78 135.50 195.73
  C 135.85 187.49 155.00 193.93 159.66 194.84
  A 1.43 1.42 26.0 0 0 161.01 194.38
  C 163.04 192.03 155.47 190.14 154.11 189.57
  C 149.28 187.53 144.94 188.29 144.56 181.18
  Q 144.54 180.69 144.78 180.26
  Q 148.55 173.61 152.16 166.93
  C 153.67 164.14 154.62 161.19 156.19 158.52
  Q 160.32 151.46 163.34 143.85
  Q 163.60 143.21 162.91 143.18
  L 151.93 142.63
  Q 151.33 142.60 151.00 143.10
  Q 143.85 153.88 139.14 165.89
  Q 138.89 166.53 138.30 166.18
  L 137.58 165.74
  Q 137.17 165.49 136.69 165.53
  C 133.34 165.83 129.58 165.99 126.92 163.52
  Q 121.61 158.60 117.65 152.54
  Q 117.36 152.10 117.61 151.65
  L 155.28 82.06
  Q 155.56 81.55 156.04 81.89
  Q 166.36 89.16 179.08 88.52
  Q 179.75 88.49 179.75 87.81
  L 179.75 84.01
  Q 179.75 83.55 179.94 83.12
  Q 181.06 80.62 182.74 80.67
  Q 192.12 80.97 201.47 80.59
  Q 201.90 80.57 202.10 80.95
  C 203.56 83.71 202.53 86.21 202.65 88.43
  Q 204.00 113.27 205.71 138.10
  C 206.59 150.74 207.21 167.24 208.65 181.81
  Q 208.70 182.30 208.44 182.71
  L 206.10 186.43
  Q 205.81 186.90 205.30 187.10
  C 200.25 189.18 194.83 189.09 191.18 193.79
  Q 190.83 194.24 191.39 194.36
  Q 193.44 194.80 194.51 194.52
  C 202.00 192.57 208.68 190.83 215.63 192.27
  Q 216.12 192.37 216.24 192.86
  C 218.76 203.45 203.46 203.83 196.99 206.44
  Q 195.32 207.12 193.43 207.75
  Q 193.02 207.88 193.45 207.95
  Z
  M 152.99 112.38
  C 150.59 114.66 152.89 117.27 154.99 118.66
  Q 155.48 118.99 155.96 118.64
  L 162.37 113.92
  A 0.61 0.61 0.0 0 0 162.22 112.86
  Q 158.11 111.33 153.80 111.99
  Q 153.34 112.06 152.99 112.38
  Z
  M 170.75 152.36
  C 164.77 161.39 158.52 170.62 153.44 180.20
  A 1.34 1.34 0.0 0 0 154.23 182.11
  L 162.99 184.79
  Q 163.47 184.94 163.73 184.52
  Q 164.89 182.63 165.24 180.73
  Q 167.82 166.62 171.07 152.50
  Q 171.29 151.55 170.75 152.36
  Z
  M 158.36 231.01
  C 160.49 227.20 160.75 221.42 160.47 217.64
  Q 160.42 217.01 159.81 217.18
  Q 148.79 220.30 139.08 226.32
  A 1.79 1.78 -52.8 0 0 139.52 229.55
  Q 147.98 232.00 156.77 231.94
  Q 157.83 231.94 158.36 231.01
  Z"
/>
<path fill="#ffffff" d="
  M 154.99 118.66
  C 152.89 117.27 150.59 114.66 152.99 112.38
  Q 153.34 112.06 153.80 111.99
  Q 158.11 111.33 162.22 112.86
  A 0.61 0.61 0.0 0 1 162.37 113.92
  L 155.96 118.64
  Q 155.48 118.99 154.99 118.66
  Z"
/>
<path fill="#ffffff" d="
  M 153.44 180.20
  C 158.52 170.62 164.77 161.39 170.75 152.36
  Q 171.29 151.55 171.07 152.50
  Q 167.82 166.62 165.24 180.73
  Q 164.89 182.63 163.73 184.52
  Q 163.47 184.94 162.99 184.79
  L 154.23 182.11
  A 1.34 1.34 0.0 0 1 153.44 180.20
  Z"
/>
<path fill="#ffffff" d="
  M 160.47 217.64
  C 160.75 221.42 160.49 227.20 158.36 231.01
  Q 157.83 231.94 156.77 231.94
  Q 147.98 232.00 139.52 229.55
  A 1.79 1.78 -52.8 0 1 139.08 226.32
  Q 148.79 220.30 159.81 217.18
  Q 160.42 217.01 160.47 217.64
  Z"
/>
</svg>
