<svg width="260" height="260" viewBox="0 0 260 260" fill="none" xmlns="http://www.w3.org/2000/svg">
<circle cx="130" cy="130" r="125" stroke="#3B91B3" stroke-width="10"/>
<path fill-rule="evenodd" clip-rule="evenodd" d="M26 102L85 28H181V180H85V127.5L145.5 49.5L85 98L78.3202 105.298L58 82.5L72.7094 111.429L58 127.5L26 102ZM85 185H181V193L204 204.5V217.5H58V204.5L85 193V185ZM110.5 53.5H82.5L110.5 48.5V53.5ZM171 53.5V164H97L163.5 157L171 53.5ZM78.5 204.5L107.5 194H147.5L78.5 204.5ZM150 79L113 124L138 110L150 79Z" fill="#3B91B3"/>
<path d="M85 28V27.5H84.7592L84.6091 27.6883L85 28ZM26 102L25.6091 101.688L25.2973 102.079L25.6884 102.391L26 102ZM181 28H181.5V27.5H181V28ZM181 180V180.5H181.5V180H181ZM85 180H84.5V180.5H85V180ZM85 127.5L84.6049 127.194L84.5 127.329V127.5H85ZM145.5 49.5L145.895 49.8064L145.187 49.1099L145.5 49.5ZM85 98L84.6873 97.6099L84.6572 97.634L84.6312 97.6624L85 98ZM78.3202 105.298L77.947 105.631L78.3153 106.044L78.689 105.636L78.3202 105.298ZM58 82.5L58.3733 82.1673L57.5543 82.7266L58 82.5ZM72.7094 111.429L73.0783 111.766L73.3121 111.511L73.1551 111.202L72.7094 111.429ZM58 127.5L57.6884 127.891L58.0536 128.182L58.3688 127.838L58 127.5ZM181 185H181.5V184.5H181V185ZM85 185V184.5H84.5V185H85ZM181 193H180.5V193.309L180.776 193.447L181 193ZM204 204.5H204.5V204.191L204.224 204.053L204 204.5ZM204 217.5V218H204.5V217.5H204ZM58 217.5H57.5V218H58V217.5ZM58 204.5L57.8041 204.04L57.5 204.169V204.5H58ZM85 193L85.1959 193.46L85.5 193.331V193H85ZM82.5 53.5L82.4121 53.0078L82.5 54V53.5ZM110.5 53.5V54H111V53.5H110.5ZM110.5 48.5H111V47.9028L110.412 48.0078L110.5 48.5ZM171 164V164.5H171.5V164H171ZM171 53.5H171.5L170.501 53.4639L171 53.5ZM97 164L96.9477 163.503L97 164.5V164ZM163.5 157L163.552 157.497L163.968 157.453L163.999 157.036L163.5 157ZM107.5 194V193.5H107.412L107.33 193.53L107.5 194ZM78.5 204.5L78.3298 204.03L78.5752 204.994L78.5 204.5ZM147.5 194L147.575 194.494L147.5 193.5V194ZM113 124L112.614 123.682L113.244 124.436L113 124ZM150 79L150.466 79.1805L149.614 78.6824L150 79ZM138 110L138.244 110.436L138.401 110.348L138.466 110.18L138 110ZM84.6091 27.6883L25.6091 101.688L26.3909 102.312L85.3909 28.3117L84.6091 27.6883ZM181 27.5H85V28.5H181V27.5ZM181.5 180V28H180.5V180H181.5ZM85 180.5H181V179.5H85V180.5ZM84.5 127.5V180H85.5V127.5H84.5ZM145.105 49.1936L84.6049 127.194L85.3951 127.806L145.895 49.8064L145.105 49.1936ZM85.3127 98.3901L145.813 49.8901L145.187 49.1099L84.6873 97.6099L85.3127 98.3901ZM78.689 105.636L85.3688 98.3376L84.6312 97.6624L77.9514 104.961L78.689 105.636ZM57.6267 82.8327L77.947 105.631L78.6935 104.966L58.3733 82.1673L57.6267 82.8327ZM73.1551 111.202L58.4457 82.2734L57.5543 82.7266L72.2637 111.655L73.1551 111.202ZM58.3688 127.838L73.0783 111.766L72.3406 111.091L57.6312 127.162L58.3688 127.838ZM25.6884 102.391L57.6884 127.891L58.3116 127.109L26.3116 101.609L25.6884 102.391ZM181 184.5H85V185.5H181V184.5ZM181.5 193V185H180.5V193H181.5ZM204.224 204.053L181.224 192.553L180.776 193.447L203.776 204.947L204.224 204.053ZM204.5 217.5V204.5H203.5V217.5H204.5ZM58 218H204V217H58V218ZM57.5 204.5V217.5H58.5V204.5H57.5ZM84.8041 192.54L57.8041 204.04L58.1959 204.96L85.1959 193.46L84.8041 192.54ZM84.5 185V193H85.5V185H84.5ZM82.5 54H110.5V53H82.5V54ZM110.412 48.0078L82.4121 53.0078L82.5879 53.9922L110.588 48.9922L110.412 48.0078ZM111 53.5V48.5H110V53.5H111ZM171.5 164V53.5H170.5V164H171.5ZM97 164.5H171V163.5H97V164.5ZM163.448 156.503L96.9477 163.503L97.0523 164.497L163.552 157.497L163.448 156.503ZM170.501 53.4639L163.001 156.964L163.999 157.036L171.499 53.5361L170.501 53.4639ZM107.33 193.53L78.3298 204.03L78.6702 204.97L107.67 194.47L107.33 193.53ZM147.5 193.5H107.5V194.5H147.5V193.5ZM78.5752 204.994L147.575 194.494L147.425 193.506L78.4248 204.006L78.5752 204.994ZM113.386 124.318L150.386 79.3176L149.614 78.6824L112.614 123.682L113.386 124.318ZM137.756 109.564L112.756 123.564L113.244 124.436L138.244 110.436L137.756 109.564ZM149.534 78.8195L137.534 109.82L138.466 110.18L150.466 79.1805L149.534 78.8195Z" fill="#3B91B3"/>
</svg>
