<svg width="180" height="191" viewBox="0 0 180 191" fill="none" xmlns="http://www.w3.org/2000/svg">
<path fill-rule="evenodd" clip-rule="evenodd" d="M1 75L60 1H156V153H60V100.5L120.5 22.5L60 71L53.3202 78.2983L33 55.5L47.7094 84.4286L33 100.5L1 75ZM60 158H156V166L179 177.5V190.5H33V177.5L60 166V158ZM85.5 26.5H57.5L85.5 21.5V26.5ZM146 26.5V137H72L138.5 130L146 26.5ZM53.5 177.5L82.5 167H122.5L53.5 177.5ZM125 52L88 97L113 83L125 52Z" fill="#3B91B3"/>
<path d="M60 1V0.5H59.7592L59.6091 0.688297L60 1ZM1 75L0.609051 74.6883L0.297267 75.0793L0.688398 75.391L1 75ZM156 1H156.5V0.5H156V1ZM156 153V153.5H156.5V153H156ZM60 153H59.5V153.5H60V153ZM60 100.5L59.6049 100.194L59.5 100.329V100.5H60ZM120.5 22.5L120.895 22.8064L120.187 22.1099L120.5 22.5ZM60 71L59.6873 70.6099L59.6572 70.634L59.6312 70.6624L60 71ZM53.3202 78.2983L52.947 78.631L53.3153 79.0442L53.689 78.6359L53.3202 78.2983ZM33 55.5L33.3733 55.1673L32.5543 55.7266L33 55.5ZM47.7094 84.4286L48.0783 84.7662L48.3121 84.5107L48.1551 84.202L47.7094 84.4286ZM33 100.5L32.6884 100.891L33.0536 101.182L33.3688 100.838L33 100.5ZM156 158H156.5V157.5H156V158ZM60 158V157.5H59.5V158H60ZM156 166H155.5V166.309L155.776 166.447L156 166ZM179 177.5H179.5V177.191L179.224 177.053L179 177.5ZM179 190.5V191H179.5V190.5H179ZM33 190.5H32.5V191H33V190.5ZM33 177.5L32.8041 177.04L32.5 177.169V177.5H33ZM60 166L60.1959 166.46L60.5 166.331V166H60ZM57.5 26.5L57.4121 26.0078L57.5 27V26.5ZM85.5 26.5V27H86V26.5H85.5ZM85.5 21.5H86V20.9028L85.4121 21.0078L85.5 21.5ZM146 137V137.5H146.5V137H146ZM146 26.5H146.5L145.501 26.4639L146 26.5ZM72 137L71.9477 136.503L72 137.5V137ZM138.5 130L138.552 130.497L138.968 130.453L138.999 130.036L138.5 130ZM82.5 167V166.5H82.4123L82.3298 166.53L82.5 167ZM53.5 177.5L53.3298 177.03L53.5752 177.994L53.5 177.5ZM122.5 167L122.575 167.494L122.5 166.5V167ZM88 97L87.6138 96.6824L88.2443 97.4363L88 97ZM125 52L125.466 52.1805L124.614 51.6824L125 52ZM113 83L113.244 83.4363L113.401 83.3483L113.466 83.1805L113 83ZM59.6091 0.688297L0.609051 74.6883L1.39095 75.3117L60.3909 1.3117L59.6091 0.688297ZM156 0.5H60V1.5H156V0.5ZM156.5 153V1H155.5V153H156.5ZM60 153.5H156V152.5H60V153.5ZM59.5 100.5V153H60.5V100.5H59.5ZM120.105 22.1936L59.6049 100.194L60.3951 100.806L120.895 22.8064L120.105 22.1936ZM60.3127 71.3901L120.813 22.8901L120.187 22.1099L59.6873 70.6099L60.3127 71.3901ZM53.689 78.6359L60.3688 71.3376L59.6312 70.6624L52.9514 77.9607L53.689 78.6359ZM32.6267 55.8327L52.947 78.631L53.6935 77.9656L33.3733 55.1673L32.6267 55.8327ZM48.1551 84.202L33.4457 55.2734L32.5543 55.7266L47.2637 84.6552L48.1551 84.202ZM33.3688 100.838L48.0783 84.7662L47.3406 84.091L32.6312 100.162L33.3688 100.838ZM0.688398 75.391L32.6884 100.891L33.3116 100.109L1.3116 74.609L0.688398 75.391ZM156 157.5H60V158.5H156V157.5ZM156.5 166V158H155.5V166H156.5ZM179.224 177.053L156.224 165.553L155.776 166.447L178.776 177.947L179.224 177.053ZM179.5 190.5V177.5H178.5V190.5H179.5ZM33 191H179V190H33V191ZM32.5 177.5V190.5H33.5V177.5H32.5ZM59.8041 165.54L32.8041 177.04L33.1959 177.96L60.1959 166.46L59.8041 165.54ZM59.5 158V166H60.5V158H59.5ZM57.5 27H85.5V26H57.5V27ZM85.4121 21.0078L57.4121 26.0078L57.5879 26.9922L85.5879 21.9922L85.4121 21.0078ZM86 26.5V21.5H85V26.5H86ZM146.5 137V26.5H145.5V137H146.5ZM72 137.5H146V136.5H72V137.5ZM138.448 129.503L71.9477 136.503L72.0523 137.497L138.552 130.497L138.448 129.503ZM145.501 26.4639L138.001 129.964L138.999 130.036L146.499 26.5361L145.501 26.4639ZM82.3298 166.53L53.3298 177.03L53.6702 177.97L82.6702 167.47L82.3298 166.53ZM122.5 166.5H82.5V167.5H122.5V166.5ZM53.5752 177.994L122.575 167.494L122.425 166.506L53.4248 177.006L53.5752 177.994ZM88.3862 97.3176L125.386 52.3176L124.614 51.6824L87.6138 96.6824L88.3862 97.3176ZM112.756 82.5637L87.7557 96.5637L88.2443 97.4363L113.244 83.4363L112.756 82.5637ZM124.534 51.8195L112.534 82.8195L113.466 83.1805L125.466 52.1805L124.534 51.8195Z" fill="#3B91B3"/>
</svg>
