<?xml version="1.0" encoding="UTF-8" standalone="no"?>
<!DOCTYPE svg PUBLIC "-//W3C//DTD SVG 1.1//EN" "http://www.w3.org/Graphics/SVG/1.1/DTD/svg11.dtd">
<svg xmlns="http://www.w3.org/2000/svg" version="1.1" viewBox="0.00 0.00 350.00 350.00">
<g stroke-width="2.00" fill="none" stroke-linecap="butt">
<path stroke="#818181" vector-effect="non-scaling-stroke" d="
  M 206.79 236.76
  C 211.41 235.88 214.79 233.58 219.29 232.79
  C 226.62 231.52 249.09 225.97 248.76 216.01
  Q 248.71 214.58 249.19 213.54
  Q 249.37 213.14 249.23 212.72
  L 248.12 209.39
  Q 247.97 208.95 247.53 208.87
  Q 237.28 206.84 227.24 208.92
  C 219.23 210.58 211.45 212.86 203.31 213.28
  Q 202.62 213.32 202.98 212.73
  C 207.53 205.14 215.20 203.66 223.63 201.60
  C 230.32 199.97 230.67 197.69 234.02 192.52
  C 235.54 190.18 234.20 186.74 234.11 184.85
  C 233.56 173.41 232.18 160.84 231.65 150.62
  C 230.92 136.68 230.57 122.90 229.25 108.80
  Q 228.57 101.64 228.25 94.17
  C 227.20 69.49 225.36 47.46 224.17 24.13
  Q 224.16 24.04 223.72 21.29
  C 223.27 18.40 225.58 16.28 224.63 13.40
  Q 223.38 9.62 223.04 7.99
  Q 222.93 7.42 222.41 7.68
  L 221.22 8.26
  Q 220.74 8.50 220.21 8.50
  Q 206.81 8.55 193.43 8.29
  C 181.74 8.07 182.87 12.25 182.74 21.93
  Q 182.73 22.44 182.23 22.46
  Q 174.89 22.86 167.64 21.99
  C 163.29 21.47 158.85 19.61 154.56 18.20
  C 148.91 16.36 144.34 13.13 139.25 10.19
  Q 138.75 9.91 138.61 10.46
  C 136.94 17.05 130.98 25.62 127.56 31.70
  C 119.16 46.60 110.96 63.66 103.28 76.80
  C 100.83 80.98 98.80 85.73 97.14 88.68
  Q 93.42 95.28 89.68 101.86
  C 83.46 112.78 77.56 124.70 70.87 135.87
  Q 70.61 136.32 70.85 136.78
  C 75.23 144.91 82.88 152.63 89.57 158.92
  C 92.46 161.65 102.63 161.37 105.95 160.89
  Q 106.45 160.81 106.79 161.19
  C 110.26 164.93 112.07 156.43 112.66 154.59
  Q 113.08 153.25 114.56 150.73
  Q 115.70 148.79 116.71 145.71
  Q 117.82 142.32 122.17 135.57
  C 125.41 130.53 127.91 125.79 130.73 120.80
  A 1.24 1.23 -74.8 0 1 131.82 120.17
  L 152.96 120.46
  Q 153.52 120.47 153.42 121.03
  C 152.77 124.75 150.77 127.93 149.56 130.68
  C 145.79 139.23 140.94 147.10 136.68 155.49
  C 135.42 157.99 135.34 160.96 133.22 163.66
  C 130.49 167.15 129.38 171.49 127.75 174.22
  Q 121.66 184.41 119.66 187.92
  Q 119.39 188.38 119.48 188.91
  C 120.76 197.30 122.98 200.77 131.70 202.28
  C 135.00 202.85 138.29 204.83 140.66 205.68
  C 143.45 206.68 150.39 208.02 149.96 211.69
  A 2.30 2.29 -82.8 0 1 147.37 213.70
  C 136.37 212.21 126.11 208.53 115.01 207.49
  Q 110.43 207.06 105.47 209.68
  Q 105.03 209.91 104.79 210.35
  C 101.15 217.26 104.17 222.06 110.76 224.90
  Q 115.27 226.85 116.62 227.55
  C 126.26 232.59 135.34 234.25 146.78 235.83
  Q 147.54 235.93 146.82 236.19
  Q 139.06 238.96 130.91 240.10
  C 122.64 241.26 114.49 238.92 109.17 247.44
  Q 107.42 250.24 100.15 259.53
  C 97.11 263.42 87.02 266.34 82.29 268.01
  C 75.20 270.51 77.62 275.73 79.54 280.75
  C 80.87 284.23 83.88 286.03 86.80 287.99
  C 88.83 289.35 90.41 291.56 93.03 292.68
  Q 109.16 299.53 126.65 300.70
  C 128.46 300.82 130.08 301.26 131.96 301.33
  Q 132.63 301.35 132.40 301.99
  Q 131.25 305.18 127.27 304.75
  C 123.26 304.31 118.96 305.57 114.60 304.87
  Q 110.95 304.29 107.24 304.24
  C 103.30 304.19 98.64 301.24 93.13 302.46
  C 89.61 303.24 87.46 305.78 85.04 308.21
  C 80.77 312.49 80.04 318.23 83.00 323.57
  Q 83.25 324.02 83.25 324.53
  C 83.25 327.78 82.54 332.19 84.38 334.96
  C 86.26 337.77 88.51 339.94 92.18 340.13
  C 98.10 340.45 104.40 341.70 109.71 341.91
  Q 114.75 342.11 122.00 342.23
  Q 183.60 343.22 234.78 342.98
  Q 235.27 342.98 235.70 343.24
  C 239.99 345.86 242.21 343.42 245.99 342.90
  Q 252.27 342.02 258.61 342.26
  Q 259.11 342.28 259.54 342.04
  C 263.91 339.58 271.04 336.65 271.50 331.00
  Q 271.94 325.58 271.77 315.62
  C 271.67 309.43 270.69 305.26 265.53 302.11
  C 261.89 299.88 256.51 300.43 252.16 300.25
  Q 251.60 300.23 251.15 300.55
  Q 248.63 302.37 245.54 302.85
  Q 244.93 302.95 244.48 303.39
  L 242.00 305.87
  Q 241.63 306.25 241.09 306.25
  L 224.00 306.25
  Q 223.50 306.25 223.50 305.75
  L 223.50 303.52
  Q 223.50 302.92 224.10 302.81
  C 237.13 300.53 251.19 298.24 262.98 291.97
  C 273.82 286.20 274.37 281.52 275.51 270.65
  A 0.68 0.67 9.5 0 0 274.98 269.92
  L 264.43 267.68
  Q 263.97 267.59 263.61 267.27
  C 258.25 262.61 251.70 261.01 247.53 254.53
  C 245.48 251.34 241.43 243.63 237.78 242.45
  C 232.84 240.84 226.38 240.55 221.53 239.57
  Q 214.20 238.09 206.79 236.98
  Q 206.14 236.88 206.79 236.76"
/>
<path stroke="#818181" vector-effect="non-scaling-stroke" d="
  M 136.75 64.75
  Q 136.23 64.84 135.23 64.54
  Q 134.61 64.36 134.36 64.96
  L 132.40 69.71
  Q 132.17 70.24 132.57 70.67
  L 138.31 76.95
  A 0.96 0.95 50.5 0 0 139.57 77.08
  L 150.85 68.89
  A 1.65 1.64 39.6 0 0 150.58 66.07
  Q 144.82 63.35 136.75 64.75"
/>
<path stroke="#818181" vector-effect="non-scaling-stroke" d="
  M 141.69 176.47
  Q 137.12 181.88 135.79 188.17
  A 2.58 2.58 0.0 0 0 137.79 191.23
  Q 145.72 192.88 153.25 196.03
  Q 153.77 196.25 154.00 195.74
  C 157.52 187.96 158.19 179.68 159.64 172.61
  Q 163.42 154.23 167.64 136.11
  A 0.21 0.21 0.0 0 0 167.25 135.95
  L 150.42 162.69
  Q 150.17 163.08 149.80 163.35
  Q 148.27 164.45 147.52 166.11
  C 145.89 169.68 144.18 173.52 141.69 176.47"
/>
<path stroke="#818181" vector-effect="non-scaling-stroke" d="
  M 128.50 279.60
  C 132.26 279.85 137.79 280.59 142.50 280.42
  Q 143.04 280.40 143.37 279.98
  C 148.68 273.25 148.59 261.91 148.09 253.96
  Q 148.06 253.34 147.46 253.51
  Q 128.31 259.00 111.26 269.29
  C 109.03 270.64 106.83 274.52 110.04 275.74
  Q 118.50 278.96 128.50 279.60"
/>
<path stroke="#818181" vector-effect="non-scaling-stroke" d="
  M 260.82 303.14
  Q 260.90 303.29 260.97 303.43
  Q 261.14 303.78 261.49 303.62
  L 263.25 302.81
  Q 263.93 302.50 263.18 302.50
  L 261.20 302.50
  Q 260.47 302.50 260.82 303.14"
/>
</g>
<path fill="#ffffff" d="
  M 0.00 0.00
  L 350.00 0.00
  L 350.00 350.00
  L 0.00 350.00
  L 0.00 0.00
  Z
  M 206.79 236.76
  C 211.41 235.88 214.79 233.58 219.29 232.79
  C 226.62 231.52 249.09 225.97 248.76 216.01
  Q 248.71 214.58 249.19 213.54
  Q 249.37 213.14 249.23 212.72
  L 248.12 209.39
  Q 247.97 208.95 247.53 208.87
  Q 237.28 206.84 227.24 208.92
  C 219.23 210.58 211.45 212.86 203.31 213.28
  Q 202.62 213.32 202.98 212.73
  C 207.53 205.14 215.20 203.66 223.63 201.60
  C 230.32 199.97 230.67 197.69 234.02 192.52
  C 235.54 190.18 234.20 186.74 234.11 184.85
  C 233.56 173.41 232.18 160.84 231.65 150.62
  C 230.92 136.68 230.57 122.90 229.25 108.80
  Q 228.57 101.64 228.25 94.17
  C 227.20 69.49 225.36 47.46 224.17 24.13
  Q 224.16 24.04 223.72 21.29
  C 223.27 18.40 225.58 16.28 224.63 13.40
  Q 223.38 9.62 223.04 7.99
  Q 222.93 7.42 222.41 7.68
  L 221.22 8.26
  Q 220.74 8.50 220.21 8.50
  Q 206.81 8.55 193.43 8.29
  C 181.74 8.07 182.87 12.25 182.74 21.93
  Q 182.73 22.44 182.23 22.46
  Q 174.89 22.86 167.64 21.99
  C 163.29 21.47 158.85 19.61 154.56 18.20
  C 148.91 16.36 144.34 13.13 139.25 10.19
  Q 138.75 9.91 138.61 10.46
  C 136.94 17.05 130.98 25.62 127.56 31.70
  C 119.16 46.60 110.96 63.66 103.28 76.80
  C 100.83 80.98 98.80 85.73 97.14 88.68
  Q 93.42 95.28 89.68 101.86
  C 83.46 112.78 77.56 124.70 70.87 135.87
  Q 70.61 136.32 70.85 136.78
  C 75.23 144.91 82.88 152.63 89.57 158.92
  C 92.46 161.65 102.63 161.37 105.95 160.89
  Q 106.45 160.81 106.79 161.19
  C 110.26 164.93 112.07 156.43 112.66 154.59
  Q 113.08 153.25 114.56 150.73
  Q 115.70 148.79 116.71 145.71
  Q 117.82 142.32 122.17 135.57
  C 125.41 130.53 127.91 125.79 130.73 120.80
  A 1.24 1.23 -74.8 0 1 131.82 120.17
  L 152.96 120.46
  Q 153.52 120.47 153.42 121.03
  C 152.77 124.75 150.77 127.93 149.56 130.68
  C 145.79 139.23 140.94 147.10 136.68 155.49
  C 135.42 157.99 135.34 160.96 133.22 163.66
  C 130.49 167.15 129.38 171.49 127.75 174.22
  Q 121.66 184.41 119.66 187.92
  Q 119.39 188.38 119.48 188.91
  C 120.76 197.30 122.98 200.77 131.70 202.28
  C 135.00 202.85 138.29 204.83 140.66 205.68
  C 143.45 206.68 150.39 208.02 149.96 211.69
  A 2.30 2.29 -82.8 0 1 147.37 213.70
  C 136.37 212.21 126.11 208.53 115.01 207.49
  Q 110.43 207.06 105.47 209.68
  Q 105.03 209.91 104.79 210.35
  C 101.15 217.26 104.17 222.06 110.76 224.90
  Q 115.27 226.85 116.62 227.55
  C 126.26 232.59 135.34 234.25 146.78 235.83
  Q 147.54 235.93 146.82 236.19
  Q 139.06 238.96 130.91 240.10
  C 122.64 241.26 114.49 238.92 109.17 247.44
  Q 107.42 250.24 100.15 259.53
  C 97.11 263.42 87.02 266.34 82.29 268.01
  C 75.20 270.51 77.62 275.73 79.54 280.75
  C 80.87 284.23 83.88 286.03 86.80 287.99
  C 88.83 289.35 90.41 291.56 93.03 292.68
  Q 109.16 299.53 126.65 300.70
  C 128.46 300.82 130.08 301.26 131.96 301.33
  Q 132.63 301.35 132.40 301.99
  Q 131.25 305.18 127.27 304.75
  C 123.26 304.31 118.96 305.57 114.60 304.87
  Q 110.95 304.29 107.24 304.24
  C 103.30 304.19 98.64 301.24 93.13 302.46
  C 89.61 303.24 87.46 305.78 85.04 308.21
  C 80.77 312.49 80.04 318.23 83.00 323.57
  Q 83.25 324.02 83.25 324.53
  C 83.25 327.78 82.54 332.19 84.38 334.96
  C 86.26 337.77 88.51 339.94 92.18 340.13
  C 98.10 340.45 104.40 341.70 109.71 341.91
  Q 114.75 342.11 122.00 342.23
  Q 183.60 343.22 234.78 342.98
  Q 235.27 342.98 235.70 343.24
  C 239.99 345.86 242.21 343.42 245.99 342.90
  Q 252.27 342.02 258.61 342.26
  Q 259.11 342.28 259.54 342.04
  C 263.91 339.58 271.04 336.65 271.50 331.00
  Q 271.94 325.58 271.77 315.62
  C 271.67 309.43 270.69 305.26 265.53 302.11
  C 261.89 299.88 256.51 300.43 252.16 300.25
  Q 251.60 300.23 251.15 300.55
  Q 248.63 302.37 245.54 302.85
  Q 244.93 302.95 244.48 303.39
  L 242.00 305.87
  Q 241.63 306.25 241.09 306.25
  L 224.00 306.25
  Q 223.50 306.25 223.50 305.75
  L 223.50 303.52
  Q 223.50 302.92 224.10 302.81
  C 237.13 300.53 251.19 298.24 262.98 291.97
  C 273.82 286.20 274.37 281.52 275.51 270.65
  A 0.68 0.67 9.5 0 0 274.98 269.92
  L 264.43 267.68
  Q 263.97 267.59 263.61 267.27
  C 258.25 262.61 251.70 261.01 247.53 254.53
  C 245.48 251.34 241.43 243.63 237.78 242.45
  C 232.84 240.84 226.38 240.55 221.53 239.57
  Q 214.20 238.09 206.79 236.98
  Q 206.14 236.88 206.79 236.76
  Z"
/>
<path fill="#020202" d="
  M 206.79 236.98
  Q 214.20 238.09 221.53 239.57
  C 226.38 240.55 232.84 240.84 237.78 242.45
  C 241.43 243.63 245.48 251.34 247.53 254.53
  C 251.70 261.01 258.25 262.61 263.61 267.27
  Q 263.97 267.59 264.43 267.68
  L 274.98 269.92
  A 0.68 0.67 9.5 0 1 275.51 270.65
  C 274.37 281.52 273.82 286.20 262.98 291.97
  C 251.19 298.24 237.13 300.53 224.10 302.81
  Q 223.50 302.92 223.50 303.52
  L 223.50 305.75
  Q 223.50 306.25 224.00 306.25
  L 241.09 306.25
  Q 241.63 306.25 242.00 305.87
  L 244.48 303.39
  Q 244.93 302.95 245.54 302.85
  Q 248.63 302.37 251.15 300.55
  Q 251.60 300.23 252.16 300.25
  C 256.51 300.43 261.89 299.88 265.53 302.11
  C 270.69 305.26 271.67 309.43 271.77 315.62
  Q 271.94 325.58 271.50 331.00
  C 271.04 336.65 263.91 339.58 259.54 342.04
  Q 259.11 342.28 258.61 342.26
  Q 252.27 342.02 245.99 342.90
  C 242.21 343.42 239.99 345.86 235.70 343.24
  Q 235.27 342.98 234.78 342.98
  Q 183.60 343.22 122.00 342.23
  Q 114.75 342.11 109.71 341.91
  C 104.40 341.70 98.10 340.45 92.18 340.13
  C 88.51 339.94 86.26 337.77 84.38 334.96
  C 82.54 332.19 83.25 327.78 83.25 324.53
  Q 83.25 324.02 83.00 323.57
  C 80.04 318.23 80.77 312.49 85.04 308.21
  C 87.46 305.78 89.61 303.24 93.13 302.46
  C 98.64 301.24 103.30 304.19 107.24 304.24
  Q 110.95 304.29 114.60 304.87
  C 118.96 305.57 123.26 304.31 127.27 304.75
  Q 131.25 305.18 132.40 301.99
  Q 132.63 301.35 131.96 301.33
  C 130.08 301.26 128.46 300.82 126.65 300.70
  Q 109.16 299.53 93.03 292.68
  C 90.41 291.56 88.83 289.35 86.80 287.99
  C 83.88 286.03 80.87 284.23 79.54 280.75
  C 77.62 275.73 75.20 270.51 82.29 268.01
  C 87.02 266.34 97.11 263.42 100.15 259.53
  Q 107.42 250.24 109.17 247.44
  C 114.49 238.92 122.64 241.26 130.91 240.10
  Q 139.06 238.96 146.82 236.19
  Q 147.54 235.93 146.78 235.83
  C 135.34 234.25 126.26 232.59 116.62 227.55
  Q 115.27 226.85 110.76 224.90
  C 104.17 222.06 101.15 217.26 104.79 210.35
  Q 105.03 209.91 105.47 209.68
  Q 110.43 207.06 115.01 207.49
  C 126.11 208.53 136.37 212.21 147.37 213.70
  A 2.30 2.29 -82.8 0 0 149.96 211.69
  C 150.39 208.02 143.45 206.68 140.66 205.68
  C 138.29 204.83 135.00 202.85 131.70 202.28
  C 122.98 200.77 120.76 197.30 119.48 188.91
  Q 119.39 188.38 119.66 187.92
  Q 121.66 184.41 127.75 174.22
  C 129.38 171.49 130.49 167.15 133.22 163.66
  C 135.34 160.96 135.42 157.99 136.68 155.49
  C 140.94 147.10 145.79 139.23 149.56 130.68
  C 150.77 127.93 152.77 124.75 153.42 121.03
  Q 153.52 120.47 152.96 120.46
  L 131.82 120.17
  A 1.24 1.23 -74.8 0 0 130.73 120.80
  C 127.91 125.79 125.41 130.53 122.17 135.57
  Q 117.82 142.32 116.71 145.71
  Q 115.70 148.79 114.56 150.73
  Q 113.08 153.25 112.66 154.59
  C 112.07 156.43 110.26 164.93 106.79 161.19
  Q 106.45 160.81 105.95 160.89
  C 102.63 161.37 92.46 161.65 89.57 158.92
  C 82.88 152.63 75.23 144.91 70.85 136.78
  Q 70.61 136.32 70.87 135.87
  C 77.56 124.70 83.46 112.78 89.68 101.86
  Q 93.42 95.28 97.14 88.68
  C 98.80 85.73 100.83 80.98 103.28 76.80
  C 110.96 63.66 119.16 46.60 127.56 31.70
  C 130.98 25.62 136.94 17.05 138.61 10.46
  Q 138.75 9.91 139.25 10.19
  C 144.34 13.13 148.91 16.36 154.56 18.20
  C 158.85 19.61 163.29 21.47 167.64 21.99
  Q 174.89 22.86 182.23 22.46
  Q 182.73 22.44 182.74 21.93
  C 182.87 12.25 181.74 8.07 193.43 8.29
  Q 206.81 8.55 220.21 8.50
  Q 220.74 8.50 221.22 8.26
  L 222.41 7.68
  Q 222.93 7.42 223.04 7.99
  Q 223.38 9.62 224.63 13.40
  C 225.58 16.28 223.27 18.40 223.72 21.29
  Q 224.16 24.04 224.17 24.13
  C 225.36 47.46 227.20 69.49 228.25 94.17
  Q 228.57 101.64 229.25 108.80
  C 230.57 122.90 230.92 136.68 231.65 150.62
  C 232.18 160.84 233.56 173.41 234.11 184.85
  C 234.20 186.74 235.54 190.18 234.02 192.52
  C 230.67 197.69 230.32 199.97 223.63 201.60
  C 215.20 203.66 207.53 205.14 202.98 212.73
  Q 202.62 213.32 203.31 213.28
  C 211.45 212.86 219.23 210.58 227.24 208.92
  Q 237.28 206.84 247.53 208.87
  Q 247.97 208.95 248.12 209.39
  L 249.23 212.72
  Q 249.37 213.14 249.19 213.54
  Q 248.71 214.58 248.76 216.01
  C 249.09 225.97 226.62 231.52 219.29 232.79
  C 214.79 233.58 211.41 235.88 206.79 236.76
  Q 206.14 236.88 206.79 236.98
  Z
  M 136.75 64.75
  Q 136.23 64.84 135.23 64.54
  Q 134.61 64.36 134.36 64.96
  L 132.40 69.71
  Q 132.17 70.24 132.57 70.67
  L 138.31 76.95
  A 0.96 0.95 50.5 0 0 139.57 77.08
  L 150.85 68.89
  A 1.65 1.64 39.6 0 0 150.58 66.07
  Q 144.82 63.35 136.75 64.75
  Z
  M 141.69 176.47
  Q 137.12 181.88 135.79 188.17
  A 2.58 2.58 0.0 0 0 137.79 191.23
  Q 145.72 192.88 153.25 196.03
  Q 153.77 196.25 154.00 195.74
  C 157.52 187.96 158.19 179.68 159.64 172.61
  Q 163.42 154.23 167.64 136.11
  A 0.21 0.21 0.0 0 0 167.25 135.95
  L 150.42 162.69
  Q 150.17 163.08 149.80 163.35
  Q 148.27 164.45 147.52 166.11
  C 145.89 169.68 144.18 173.52 141.69 176.47
  Z
  M 128.50 279.60
  C 132.26 279.85 137.79 280.59 142.50 280.42
  Q 143.04 280.40 143.37 279.98
  C 148.68 273.25 148.59 261.91 148.09 253.96
  Q 148.06 253.34 147.46 253.51
  Q 128.31 259.00 111.26 269.29
  C 109.03 270.64 106.83 274.52 110.04 275.74
  Q 118.50 278.96 128.50 279.60
  Z
  M 260.82 303.14
  Q 260.90 303.29 260.97 303.43
  Q 261.14 303.78 261.49 303.62
  L 263.25 302.81
  Q 263.93 302.50 263.18 302.50
  L 261.20 302.50
  Q 260.47 302.50 260.82 303.14
  Z"
/>
<path fill="#ffffff" d="
  M 136.75 64.75
  Q 144.82 63.35 150.58 66.07
  A 1.65 1.64 39.6 0 1 150.85 68.89
  L 139.57 77.08
  A 0.96 0.95 50.5 0 1 138.31 76.95
  L 132.57 70.67
  Q 132.17 70.24 132.40 69.71
  L 134.36 64.96
  Q 134.61 64.36 135.23 64.54
  Q 136.23 64.84 136.75 64.75
  Z"
/>
<path fill="#ffffff" d="
  M 141.69 176.47
  C 144.18 173.52 145.89 169.68 147.52 166.11
  Q 148.27 164.45 149.80 163.35
  Q 150.17 163.08 150.42 162.69
  L 167.25 135.95
  A 0.21 0.21 0.0 0 1 167.64 136.11
  Q 163.42 154.23 159.64 172.61
  C 158.19 179.68 157.52 187.96 154.00 195.74
  Q 153.77 196.25 153.25 196.03
  Q 145.72 192.88 137.79 191.23
  A 2.58 2.58 0.0 0 1 135.79 188.17
  Q 137.12 181.88 141.69 176.47
  Z"
/>
<path fill="#ffffff" d="
  M 128.50 279.60
  Q 118.50 278.96 110.04 275.74
  C 106.83 274.52 109.03 270.64 111.26 269.29
  Q 128.31 259.00 147.46 253.51
  Q 148.06 253.34 148.09 253.96
  C 148.59 261.91 148.68 273.25 143.37 279.98
  Q 143.04 280.40 142.50 280.42
  C 137.79 280.59 132.26 279.85 128.50 279.60
  Z"
/>
<path fill="#ffffff" d="
  M 261.20 302.50
  L 263.18 302.50
  Q 263.93 302.50 263.25 302.81
  L 261.49 303.62
  Q 261.14 303.78 260.97 303.43
  Q 260.90 303.29 260.82 303.14
  Q 260.47 302.50 261.20 302.50
  Z"
/>
</svg>
