<?xml version="1.0" encoding="UTF-8" standalone="no"?>
<!-- Uploaded to: SVG Repo, www.svgrepo.com, Generator: SVG Repo Mixer Tools -->

<svg
   width="800px"
   height="800px"
   viewBox="0 0 512 512"
   version="1.1"
   id="svg1"
   sodipodi:docname="newlogo.svg"
   inkscape:version="1.4.1-rc (06eac75fbf, 2025-03-29)"
   xmlns:inkscape="http://www.inkscape.org/namespaces/inkscape"
   xmlns:sodipodi="http://sodipodi.sourceforge.net/DTD/sodipodi-0.dtd"
   xmlns="http://www.w3.org/2000/svg"
   xmlns:svg="http://www.w3.org/2000/svg"><defs
   id="defs1">
  <linearGradient
     id="linearGradient4"
     inkscape:swatch="gradient">
    <stop
       style="stop-color:#3b91b3;stop-opacity:1;"
       offset="0"
       id="stop4" />
    <stop
       style="stop-color:#3b91b3;stop-opacity:0;"
       offset="1"
       id="stop5" />
  </linearGradient>
</defs>
<sodipodi:namedview
   id="namedview1"
   pagecolor="#ffffff"
   bordercolor="#000000"
   borderopacity="0.25"
   inkscape:showpageshadow="2"
   inkscape:pageopacity="0.0"
   inkscape:pagecheckerboard="0"
   inkscape:deskcolor="#d1d1d1"
   showgrid="false"
   inkscape:zoom="2.8284271"
   inkscape:cx="384.84287"
   inkscape:cy="456.6142"
   inkscape:window-width="1870"
   inkscape:window-height="1043"
   inkscape:window-x="0"
   inkscape:window-y="0"
   inkscape:window-maximized="1"
   inkscape:current-layer="svg1" />
id=&quot;defs4976&quot; /&gt;<path
   fill="#000000"
   d="m 295.038,362.1876 h -60 v -12 h 60 z M 281.31603,259.52525 245.492,259.6456 c -6.376,-8.724 -12.268,-6.37 -12.268,-6.37 l 4.324,10.6 -7.128,3.8 -0.574,6.6 -7.764,17.91 8.71,5.874 c 0,0 0.244,-8.558 2.81,-10.012 2.132,-1.2 8.244,-2.05 11.234,-2.4 l 0.708,-10.262 2.4,2.112 0.25,7.182 c 0.026,0.036 0.05,0.074 0.076,0.114 2.40424,52.8159 0.52,56.978 -8.578,62.196 h 50.68 c -12.63316,-63.63655 -9.05597,-87.46435 -9.05597,-87.46435 z"
   id="path1"
   style="stroke-width:0.2"
   sodipodi:nodetypes="cccccccccccccccccccccc" />
<path
   style="fill:#ffffff;stroke-width:0.403123"
   d="m 233.74121,274.25611 c 2.70374,-4.55366 -0.42691,-5.69208 7.25739,-5.26517"
   id="path2" />
<path
   style="fill:#ffffff;stroke-width:1.39704"
   d="m 255.09054,329.79175 c 3.22767,-45.81243 -0.50963,-57.26559 8.66373,-52.97058"
   id="path2-8" />
<path
   style="fill:#ffffff;stroke-width:1.37064"
   d="m 276.33634,271.05613 c -5.14222,45.13414 -0.20219,40.7429 -12.70235,69.19779"
   id="path2-8-3" />
<path
   style="fill:#ffffff;stroke-width:0.999261"
   d="m 239.7271,357.27959 c 16.61298,-4.55366 -2.62312,-5.69208 44.59263,-5.26517"
   id="path2-8-8" />
<path
   style="fill:#3b91b3;stroke-width:0.35411;fill-opacity:1;stroke:none;stroke-opacity:1"
   d="m 377.71767,540.39717 c 7.08401,-4.73807 9.8437,-11.01869 11.18121,-25.44666 0.94234,-10.1651 0.79695,-34.54302 -0.35424,-59.39697 -0.19364,-4.18076 -0.49964,-10.86292 -0.67998,-14.84924 l -0.32791,-7.24784 -1.85178,-1.67541 c -1.01848,-0.92147 -1.9351,-1.59209 -2.03692,-1.49026 -0.10183,0.10182 -0.4315,3.71501 -0.7326,8.0293 l -0.54746,7.84416 -4.41941,0.62048 c -5.77733,0.81113 -10.52663,1.90708 -12.43297,2.86903 -1.02618,0.51782 -1.79652,1.2562 -2.33196,2.23522 -1.1372,2.07932 -2.15863,6.3809 -2.42922,10.23027 l -0.23229,3.30469 -6.61687,-4.48413 -6.61687,-4.48414 0.98504,-2.30722 c 0.54178,-1.26897 3.2332,-7.47793 5.98095,-13.7977 l 4.99589,-11.49049 0.4576,-4.98659 c 0.25167,-2.74263 0.56596,-5.16196 0.69843,-5.37628 0.13246,-0.21433 2.61995,-1.62964 5.52775,-3.14514 2.9078,-1.51549 5.28918,-2.9144 5.29195,-3.10868 0.003,-0.19428 -1.4497,-3.90959 -3.22773,-8.25624 -2.6078,-6.37514 -3.13752,-7.96333 -2.74004,-8.21502 1.33067,-0.8426 6.17034,0.049 9.30511,1.71421 1.00321,0.53292 3.39763,2.55412 5.43114,4.58456 l 3.6369,3.63144 h 27.9089 27.9089 l -0.25633,1.14904 c -0.42574,1.9085 -0.26906,30.05009 0.20226,36.32762 2.20003,29.30228 6.27752,58.40245 13.26422,94.66392 l 0.83448,4.33103 h -39.21645 -39.21646 z m 37.95022,-16.96137 c 4.96556,-11.83739 7.82521,-20.30951 9.28889,-27.51971 1.14321,-5.63152 1.71246,-10.90372 2.836,-26.2664 1.33997,-18.32187 3.17455,-38.72159 4.06571,-45.20884 0.13344,-0.97138 0.0967,-1.0854 -0.17064,-0.53033 -0.37488,0.77821 -19.81338,106.49802 -19.77317,107.54002 0.0285,0.73796 0.53837,-0.3509 3.75321,-8.01474 z m -10.14334,-49.44382 c 3.69529,-22.59331 6.7187,-41.21999 6.7187,-41.39262 0,-0.49258 -3.15149,-1.441 -4.78827,-1.441 -1.96578,0 -3.12122,0.95603 -4.00265,3.31186 -1.51058,4.03737 -1.92837,9.0469 -2.70193,32.39703 -0.5485,16.55671 -1.32205,33.24707 -1.94995,42.07286 -0.38757,5.44766 -0.41742,6.55344 -0.17019,6.30622 0.0966,-0.0966 3.19901,-18.66103 6.89429,-41.25435 z m -34.36239,-49.4833 c 2.75128,-2.00446 5.09494,-3.79433 5.20813,-3.97748 0.45076,-0.72935 -6.68681,-0.54263 -7.84281,0.20517 -0.49808,0.32221 -1.09039,1.53166 -1.72287,3.51798 -0.53012,1.66483 -1.10337,3.11319 -1.2739,3.21858 -0.17053,0.1054 -0.31006,0.42879 -0.31006,0.71866 0,0.6626 -0.15442,0.75832 5.94151,-3.68291 z"
   id="path3"
   transform="scale(0.64)" />
<path
   style="mix-blend-mode:lighten;fill:#3b91b3;fill-opacity:1;stroke:#3b91b3;stroke-width:0;stroke-dasharray:none;stroke-opacity:1"
   d="m 367.34197,556.66981 v -9.19238 h 46.66905 46.66905 v 9.19238 9.19239 h -46.66905 -46.66905 z m 36.94633,-1.75308 c 14.77853,-1.74049 29.73384,-3.49803 33.23402,-3.90565 3.50018,-0.40762 6.52306,-0.78931 6.71752,-0.84821 1.21761,-0.3688 -29.82576,-0.55185 -38.53732,-0.22724 -12.6098,0.46988 -14.8151,0.82548 -18.49365,2.98206 -3.09471,1.81431 -6.78186,3.40524 -10.36531,4.47244 -2.74481,0.81744 -3.17121,1.23535 -0.92792,0.90943 0.82643,-0.12006 13.59413,-1.64234 28.37266,-3.38283 z"
   id="path4"
   transform="scale(0.64)" />
</svg>
